#!OML:ASF H:\LiuWeirdWalks\Patient Classification 1\Patient 1\Session 1\male.ASF
:FULLY-SPECIFIED
:DEGREES
216
root 0.235822 17.5564 -21.9513 4.27802 14.5949 -3.61424
lowerback 3.88461 12.7571 7.17135
upperback -2.55206 17.3865 -1.9826
thorax -2.10497 8.5456 -6.42635
lowerneck -15.762 -9.73855 -7.99918
upperneck 24.7709 -12.4284 3.50762
head 11.3973 -5.91892 0.749446
rclavicle -6.63195e-014 -1.53064e-014
rhumerus -10.5728 20.5766 -87.4216
rradius 44.2919
rwrist -2.59506
rhand -14.6627 3.7995
rfingers 7.12502
rthumb 11.4901 -25.8656
lclavicle -6.63195e-014 -1.53064e-014
lhumerus -65.2605 30.9072 26.1058
lradius 43.3896
lwrist 8.81418
lhand -13.6136 3.02033
lfingers 7.12502
lthumb 12.5017 32.6264
rfemur 23.4309 -9.3374 26.2917
rtibia 10.4431
rfoot 4.77826 -20.5934
rtoes -10.666
lfemur -34.4579 -5.01579 -18.1176
ltibia 37.269
lfoot -4.00919 6.12677
ltoes -5.9141
217
root 0.283965 17.5924 -21.815 4.16032 14.1767 -3.51642
lowerback 3.90826 12.6014 7.09247
upperback -2.54947 17.1784 -1.88543
thorax -2.19861 8.43742 -6.31148
lowerneck -15.7701 -9.65245 -8.01049
upperneck 24.9584 -12.3282 3.55971
head 11.4685 -5.86558 0.782744
rclavicle 1.38851e-013 1.32192e-014
rhumerus -11.1444 20.6655 -87.4549
rradius 44.4255
rwrist -2.69637
rhand -14.7208 3.66769
rfingers 7.12502
rthumb 11.434 -26.0005
lclavicle 1.38851e-013 1.32192e-014
lhumerus -65.1696 30.6995 26.8585
lradius 43.4466
lwrist 8.82614
lhand -13.3663 3.00908
lfingers 7.12502
lthumb 12.74 32.6004
rfemur 21.5616 -9.46522 25.6726
rtibia 14.9097
rfoot 4.73194 -19.9199
rtoes -9.09354
lfemur -33.5161 -4.8534 -18.3198
ltibia 36.9907
lfoot -4.283 6.60075
ltoes -5.71819
218
root 0.331693 17.6294 -21.6805 4.0421 13.734 -3.40769
lowerback 3.93624 12.4218 7.00423
upperback -2.53403 16.9378 -1.78282
thorax -2.28889 8.31378 -6.18613
lowerneck -15.8143 -9.54179 -7.9982
upperneck 25.1357 -12.1924 3.59697
head 11.5377 -5.79557 0.811725
rclavicle -6.39341e-014 -6.65929e-015
rhumerus -11.7335 20.8004 -87.4566
rradius 44.6071
rwrist -2.89229
rhand -14.7797 3.53839
rfingers 7.12502
rthumb 11.3772 -26.133
lclavicle -6.39341e-014 -6.65929e-015
lhumerus -65.0283 30.4552 27.7206
lradius 43.5031
lwrist 8.85963
lhand -13.1806 3.03046
lfingers 7.12502
lthumb 12.9191 32.6105
rfemur 20.0119 -9.58535 25.0344
rtibia 18.6616
rfoot 5.1866 -19.2137
rtoes -7.3388
lfemur -32.5423 -4.70026 -18.5264
ltibia 36.6443
lfoot -4.53847 7.08627
ltoes -5.58456
219
root 0.37886 17.667 -21.5479 3.92668 13.2648 -3.28426
lowerback 3.97826 12.2268 6.89551
upperback -2.51783 16.6766 -1.67881
thorax -2.3935 8.17973 -6.05257
lowerneck -15.9275 -9.4109 -7.92687
upperneck 25.3196 -12.0305 3.60098
head 11.6145 -5.71114 0.820978
rclavicle 1.28202e-013 8.05078e-015
rhumerus -12.3507 20.9624 -87.4282
rradius 44.8336
rwrist -3.18875
rhand -14.7931 3.43432
rfingers 7.12502
rthumb 11.3643 -26.2378
lclavicle 1.28202e-013 8.05078e-015
lhumerus -64.8325 30.1829 28.671
lradius 43.5487
lwrist 8.86774
lhand -13.0105 3.04141
lfingers 7.12502
lthumb 13.0831 32.6111
rfemur 18.593 -9.68355 24.3823
rtibia 22.0616
rfoot 5.9406 -18.5256
rtoes -5.46097
lfemur -31.5419 -4.55136 -18.7416
ltibia 36.2307
lfoot -4.76992 7.57989
ltoes -5.4867
220
root 0.425339 17.7046 -21.417 3.81044 12.7807 -3.15726
lowerback 4.02927 12.0244 6.78514
upperback -2.50254 16.4059 -1.58271
thorax -2.50174 8.04093 -5.92663
lowerneck -16.029 -9.26866 -7.78494
upperneck 25.4711 -11.8633 3.57548
head 11.6691 -5.62243 0.810926
rclavicle -2.40722e-013 -8.29926e-015
rhumerus -12.9864 21.1173 -87.3652
rradius 45.1054
rwrist -3.6362
rhand -14.7785 3.33337
rfingers 7.12502
rthumb 11.3784 -26.3379
lclavicle -2.40722e-013 -8.29926e-015
lhumerus -64.5327 29.8587 29.7237
lradius 43.5746
lwrist 8.83018
lhand -12.8934 3.03364
lfingers 7.12502
lthumb 13.1959 32.596
rfemur 17.2384 -9.77754 23.727
rtibia 25.2363
rfoot 6.90317 -17.8456
rtoes -3.4672
lfemur -30.5187 -4.3877 -18.9605
ltibia 35.7535
lfoot -4.98622 8.05379
ltoes -5.39916
221
root 0.471268 17.7421 -21.2874 3.7166 12.2977 -2.99931
lowerback 4.08021 11.8101 6.65133
upperback -2.50222 16.1182 -1.51129
thorax -2.62531 7.89327 -5.81435
lowerneck -16.0768 -9.14326 -7.66399
upperneck 25.6175 -11.729 3.58638
head 11.718 -5.54703 0.814369
rclavicle -1.38953e-013 -1.69464e-014
rhumerus -13.6528 21.2642 -87.2813
rradius 45.4194
rwrist -4.21624
rhand -14.6465 3.25956
rfingers 7.12502
rthumb 11.5057 -26.4047
lclavicle -1.38953e-013 -1.69464e-014
lhumerus -64.1212 29.4255 30.8932
lradius 43.5934
lwrist 8.79297
lhand -12.7962 2.98702
lfingers 7.12502
lthumb 13.2896 32.5433
rfemur 15.9064 -9.89077 23.0363
rtibia 28.2371
rfoot 7.93085 -17.2704
rtoes -1.59956
lfemur -29.4916 -4.20407 -19.216
ltibia 35.2183
lfoot -5.19699 8.49365
ltoes -5.29934
222
root 0.516544 17.7789 -21.1591 3.63599 11.8146 -2.81543
lowerback 4.09117 11.5877 6.47415
upperback -2.48763 15.8135 -1.4352
thorax -2.72487 7.73994 -5.66379
lowerneck -16.2371 -9.02508 -7.45886
upperneck 25.7665 -11.5856 3.47217
head 11.7748 -5.47324 0.755753
rclavicle 2.62551e-013 2.04251e-014
rhumerus -14.3012 21.404 -87.1207
rradius 45.7564
rwrist -4.86606
rhand -14.4286 3.22429
rfingers 7.12502
rthumb 11.7159 -26.4281
lclavicle 2.62551e-013 2.04251e-014
lhumerus -63.6278 28.9658 32.1593
lradius 43.5846
lwrist 8.63394
lhand -12.7065 2.87624
lfingers 7.12502
lthumb 13.3761 32.4269
rfemur 14.5938 -10.0331 22.3133
rtibia 31.0858
rfoot 8.92958 -16.8741
rtoes 0.153072
lfemur -28.4572 -3.99983 -19.5028
ltibia 34.6329
lfoot -5.40659 8.90142
ltoes -5.18567
223
root 0.560698 17.8146 -21.0314 3.55497 11.3292 -2.61569
lowerback 4.06624 11.3522 6.26054
upperback -2.44871 15.4863 -1.34857
thorax -2.79175 7.57857 -5.47209
lowerneck -16.3523 -8.90887 -7.27892
upperneck 25.8808 -11.4486 3.38812
head 11.8142 -5.40248 0.713361
rclavicle -1.41311e-013 -1.00821e-014
rhumerus -14.9367 21.5442 -86.8981
rradius 46.1242
rwrist -5.52848
rhand -14.2127 3.17511
rfingers 7.12502
rthumb 11.924 -26.4653
lclavicle -1.41311e-013 -1.00821e-014
lhumerus -63.0524 28.4557 33.5382
lradius 43.5764
lwrist 8.47722
lhand -12.6461 2.73721
lfingers 7.12502
lthumb 13.4343 32.284
rfemur 13.3045 -10.2087 21.5717
rtibia 33.7941
rfoot 9.77704 -16.8103
rtoes 1.9742
lfemur -27.4066 -3.75707 -19.8085
ltibia 34.0072
lfoot -5.62707 9.25896
ltoes -5.04044
224
root 0.60373 17.8487 -20.9038 3.47845 10.849 -2.38206
lowerback 4.00795 11.0928 5.98589
upperback -2.39324 15.1212 -1.25196
thorax -2.84225 7.40102 -5.22992
lowerneck -16.4079 -8.79314 -7.12848
upperneck 25.9202 -11.3044 3.30329
head 11.815 -5.33417 0.680096
rclavicle -2.39514e-014 -1.01877e-015
rhumerus -15.5683 21.7288 -86.6346
rradius 46.5212
rwrist -6.27057
rhand -14.0176 3.10543
rfingers 7.12502
rthumb 12.1121 -26.524
lclavicle -2.39514e-014 -1.01877e-015
lhumerus -62.4283 27.8816 35.0022
lradius 43.5676
lwrist 8.32649
lhand -12.653 2.60979
lfingers 7.12502
lthumb 13.4277 32.157
rfemur 12.0377 -10.4313 20.7918
rtibia 36.3717
rfoot 10.3215 -17.2106
rtoes 3.63762
lfemur -26.3431 -3.49292 -20.1505
ltibia 33.349
lfoot -5.85462 9.57085
ltoes -4.88159
225
root 0.645581 17.8811 -20.777 3.39343 10.3755 -2.15043
lowerback 3.94751 10.8214 5.7052
upperback -2.33415 14.74 -1.15509
thorax -2.88692 7.21614 -4.98119
lowerneck -16.5087 -8.65152 -6.88601
upperneck 25.9494 -11.1324 3.16917
head 11.8096 -5.25019 0.61733
rclavicle -1.07726e-013 -1.92821e-014
rhumerus -16.2199 21.9951 -86.3294
rradius 46.9679
rwrist -7.11129
rhand -13.9882 2.99884
rfingers 7.12502
rthumb 12.1405 -26.6289
lclavicle -1.07726e-013 -1.92821e-014
lhumerus -61.7189 27.2304 36.5392
lradius 43.5532
lwrist 8.17795
lhand -12.6832 2.47265
lfingers 7.12502
lthumb 13.3986 32.0218
rfemur 10.7863 -10.6944 20.0222
rtibia 38.8234
rfoot 10.4618 -18.1015
rtoes 4.97834
lfemur -25.2729 -3.20912 -20.4869
ltibia 32.6701
lfoot -6.08554 9.83276
ltoes -4.71987
226
root 0.686512 17.9114 -20.6517 3.32461 9.90617 -1.88763
lowerback 3.88532 10.5291 5.39968
upperback -2.27645 14.3296 -1.07354
thorax -2.93267 7.01724 -4.73265
lowerneck -16.4385 -8.5027 -6.72634
upperneck 25.8922 -10.9697 3.16026
head 11.7524 -5.16712 0.620032
rclavicle -3.66742e-014 1.66482e-014
rhumerus -16.8849 22.3003 -86.0133
rradius 47.4408
rwrist -7.94374
rhand -14.0963 2.86224
rfingers 7.12502
rthumb 12.0362 -26.7716
lclavicle -3.66742e-014 1.66482e-014
lhumerus -60.9503 26.5219 38.1085
lradius 43.526
lwrist 7.98949
lhand -12.7188 2.34529
lfingers 7.12502
lthumb 13.3642 31.8967
rfemur 9.52676 -10.9998 19.2234
rtibia 41.1467
rfoot 10.1338 -19.4006
rtoes 5.99206
lfemur -24.2187 -2.90133 -20.8564
ltibia 31.9691
lfoot -6.30551 10.0369
ltoes -4.5742
